<?xml version="1.0" encoding="iso-8859-1"?>
<!-- Generator: Adobe Illustrator 19.0.0, SVG Export Plug-In . SVG Version: 6.00 Build 0)  -->
<!-- License: CC0. Made by SVG Repo: https://www.svgrepo.com/svg/285666/vip-person-vip -->
<svg version="1.1" id="Capa_1" xmlns="http://www.w3.org/2000/svg" xmlns:xlink="http://www.w3.org/1999/xlink" x="0px" y="0px"
	 viewBox="0 0 511.999 511.999" style="enable-background:new 0 0 511.999 511.999;" xml:space="preserve">
<g>
	<g>
		<path d="M112.536,410.703c-4.196,0-7.597,3.401-7.597,7.597v86.102c0,4.197,3.401,7.597,7.597,7.597s7.597-3.401,7.597-7.597
			V418.3C120.133,414.104,116.732,410.703,112.536,410.703z"/>
	</g>
</g>
<g>
	<g>
		<path d="M301.087,217.855c-2.968-2.966-7.777-2.966-10.744,0c-16.882,16.884-44.354,16.884-61.238,0
			c-2.967-2.966-7.777-2.966-10.743,0c-2.967,2.968-2.967,7.777,0,10.744c11.404,11.404,26.383,17.106,41.363,17.106
			c14.979,0,29.958-5.702,41.363-17.106C304.054,225.632,304.054,220.822,301.087,217.855z"/>
	</g>
</g>
<g>
	<g>
		<path d="M368.963,338.611h-23.851c-13.901,0-25.29-10.954-25.99-24.685c-0.001-0.009,0-0.018-0.001-0.027
			c-0.021-0.435-0.033-0.871-0.033-1.311v-28.147c25.141-15.286,43.273-40.99,48.38-71.071c20.283-2.66,35.997-20.044,35.997-41.042
			c0-20.49-14.962-37.541-34.533-40.826v-28.087C368.931,46.391,322.541,0,265.518,0H253.93c-4.196,0-7.597,3.401-7.597,7.597
			c0,4.196,3.401,7.597,7.597,7.597h11.588c48.644,0,88.22,39.575,88.22,88.22v17.034c-19.158-0.311-34.65-15.983-34.65-35.214
			c0-0.004-0.001-0.008-0.001-0.008c0.004-1.954-0.736-3.906-2.224-5.394c-2.968-2.966-7.777-2.966-10.744,0
			c-25.58,25.583-67.207,25.584-92.79,0c-2.967-2.966-7.777-2.966-10.743,0c-2.967,2.968-2.967,7.777,0,10.744
			c15.262,15.261,35.555,23.668,57.139,23.668c16.804,0,32.813-5.116,46.287-14.574c4.145,13.845,14.087,25.202,27,31.25h-0.99
			h-56.516h-29.314h-59.575c-0.414,0-0.817,0.043-1.214,0.105c-0.396-0.064-0.799-0.105-1.214-0.105h-18.48v-27.506
			c0-30.597,15.631-58.609,41.814-74.931c3.561-2.219,4.647-6.904,2.428-10.466c-2.219-3.56-6.905-4.648-10.467-2.427
			c-30.663,19.114-48.969,51.946-48.969,87.824v28.019c-20.79,2.186-37.047,19.816-37.047,41.177
			c0,21.888,17.074,39.853,38.602,41.301c4.695,26.793,19.738,50.066,40.843,65.54v33.136c0,14.349-11.674,26.023-26.024,26.023
			h-23.851c-21.008,0-38.098,17.092-38.098,38.099c0,4.197,3.402,7.597,7.597,7.597c4.196,0,7.597-3.4,7.597-7.597
			c0-12.631,10.275-22.905,22.904-22.905h23.851c16.261,0,30.348-9.467,37.051-23.175l39.723,48.415h-57.869
			c-4.196,0-7.597,3.4-7.597,7.597v85.941c0,4.197,3.401,7.597,7.597,7.597h142.487c4.197,0,7.597-3.401,7.597-7.597v-85.941
			c0-4.197-3.4-7.597-7.597-7.597h-53.758l34.035-47.444c6.884,13.181,20.68,22.204,36.553,22.204h23.851
			c12.63,0,22.904,10.275,22.904,22.905v127.693c0,4.197,3.4,7.597,7.597,7.597c4.197,0,7.597-3.401,7.597-7.597V376.709
			C407.061,355.702,389.97,338.611,368.963,338.611z M368.931,196.011v-48.975c11.129,3.029,19.338,13.217,19.338,25.292
			c0,12.083-8.219,22.276-19.359,25.297C368.919,197.088,368.931,196.551,368.931,196.011z M128.663,172.609
			c0-12.969,9.468-23.761,21.852-25.844v49.245c0,0.818,0.012,1.634,0.031,2.447C138.146,196.388,128.663,185.588,128.663,172.609z
			 M327.483,146.115v21.104c0,3.602-2.932,6.533-6.533,6.533h-31.315c-3.602,0-6.533-2.932-6.533-6.533v-21.104H327.483z
			 M194.211,146.115h0.001h0.001h44.381v21.104c0,3.602-2.931,6.533-6.534,6.533h-31.315c-3.602,0-6.534-2.932-6.534-6.533V146.115z
			 M320.684,394.239v70.747H193.391v-70.747H320.684z M303.894,312.039l-44.573,62.134l-51.212-62.417v-23.054
			c13.819,6.859,29.376,10.724,45.821,10.724h11.588c13.553,0,26.504-2.626,38.376-7.386V312.039z M265.518,284.231H253.93
			c-48.645,0-88.22-39.576-88.22-88.22v-49.896h13.309v21.104c0,11.98,9.747,21.727,21.728,21.727h31.315
			c11.981,0,21.728-9.747,21.728-21.727v-21.104h14.12v21.104c0,11.98,9.747,21.727,21.727,21.727h31.314
			c11.98,0,21.727-9.747,21.727-21.727v-21.104h11.061v49.896C353.738,244.655,314.163,284.231,265.518,284.231z"/>
	</g>
</g>
<g>
	<g>
		<path d="M244.374,405.755c-1.533,0-2.717,0.487-3.065,1.811l-10.588,37.756l-10.658-37.756c-0.348-1.324-1.533-1.811-3.065-1.811
			c-2.438,0-5.712,1.533-5.712,3.761c0,0.139,0.069,0.418,0.139,0.697l13.445,43.817c0.697,2.09,3.205,3.065,5.852,3.065
			c2.647,0,5.225-0.975,5.852-3.065l13.375-43.817c0.07-0.279,0.14-0.487,0.14-0.697
			C250.087,407.357,246.813,405.755,244.374,405.755z"/>
	</g>
</g>
<g>
	<g>
		<path d="M259.419,405.754c-2.298,0-4.528,0.836-4.528,2.786v45.281c0,1.88,2.229,2.856,4.528,2.856
			c2.229,0,4.528-0.975,4.528-2.856V408.54C263.947,406.59,261.648,405.754,259.419,405.754z"/>
	</g>
</g>
<g>
	<g>
		<path d="M289.719,405.754h-14.001c-2.09,0-3.414,1.324-3.414,2.786h-0.001v45.281c0,1.88,2.229,2.856,4.528,2.856
			c2.23,0,4.529-0.976,4.529-2.856v-16.162h7.802c9.196,0,16.37-4.389,16.37-15.813v-0.417
			C305.533,410.003,298.566,405.754,289.719,405.754z M296.477,422.543c0,5.433-2.787,8.011-7.315,8.011h-7.802v-16.858h7.802
			c4.528,0,7.315,2.577,7.315,8.01V422.543z"/>
	</g>
</g>
</svg>
