<?xml version="1.0" encoding="utf-8"?>


<!-- License: CC Attribution. Made by wishforge.games: https://www.wishforge.games/ -->
<svg fill="#000000" height="800px" width="800px" version="1.1" id="Icons" xmlns="http://www.w3.org/2000/svg" xmlns:xlink="http://www.w3.org/1999/xlink" 
	 viewBox="0 0 32 32" xml:space="preserve">
<path d="M16,2C8.3,2,2,8.3,2,16s6.3,14,14,14s14-6.3,14-14S23.7,2,16,2z M11,19c-0.6,0-1-0.4-1-1s0.4-1,1-1h1.5
	c0.3,0,0.5-0.2,0.5-0.5S12.8,16,12.5,16h-1C10.1,16,9,14.9,9,13.5c0-1.2,0.9-2.2,2-2.4V11c0-0.6,0.4-1,1-1s1,0.4,1,1
	c0.6,0,1,0.4,1,1s-0.4,1-1,1h-1.5c-0.3,0-0.5,0.2-0.5,0.5s0.2,0.5,0.5,0.5h1c1.4,0,2.5,1.1,2.5,2.5c0,1.2-0.9,2.2-2,2.4V19
	c0,0.6-0.4,1-1,1S11,19.6,11,19z M19.3,22.8C18.4,23.6,17.2,24,16,24s-2.4-0.4-3.3-1.2c-0.4-0.4-0.5-1-0.1-1.4
	c0.4-0.4,1-0.5,1.4-0.1c0.4,0.3,1.1,0.8,2,0.8s1.6-0.4,2-0.8c0.4-0.4,1-0.3,1.4,0.1C19.7,21.8,19.7,22.4,19.3,22.8z M21,18.9
	L21,18.9c0,0.6-0.4,1.1-1,1.1s-1-0.4-1-1c-0.6,0-1-0.4-1-1s0.4-1,1-1h1.5c0.3,0,0.5-0.2,0.5-0.5S20.8,16,20.5,16h-1
	c-1.4,0-2.5-1.1-2.5-2.5c0-1.2,0.9-2.2,2-2.4V11c0-0.6,0.4-1,1-1s1,0.4,1,1c0.6,0,1,0.4,1,1s-0.4,1-1,1h-1.5c-0.3,0-0.5,0.2-0.5,0.5
	s0.2,0.5,0.5,0.5h1c1.4,0,2.5,1.1,2.5,2.5C23,17.7,22.1,18.7,21,18.9z"/>
</svg>