<?xml version="1.0" encoding="iso-8859-1"?>
<!-- Generator: Adobe Illustrator 19.0.0, SVG Export Plug-In . SVG Version: 6.00 Build 0)  -->
<!-- License: CC0. Made by SVG Repo: https://www.svgrepo.com/svg/100506/badge -->
<svg version="1.1" id="Capa_1" xmlns="http://www.w3.org/2000/svg" xmlns:xlink="http://www.w3.org/1999/xlink" x="0px" y="0px"
	 viewBox="0 0 382.934 382.934" style="enable-background:new 0 0 382.934 382.934;" xml:space="preserve">
<g id="XMLID_443_">
	<circle id="XMLID_444_" cx="237.611" cy="186.345" r="13.876"/>
	<circle id="XMLID_445_" cx="193.209" cy="186.345" r="13.876"/>
	<circle id="XMLID_446_" cx="215.41" cy="147.493" r="13.876"/>
	<path id="XMLID_447_" d="M360.584,291.461l21.053-35.088c3.602-6.003-0.722-13.64-7.722-13.64h-21.646v-12.832
		c0-9.06-7.345-16.405-16.405-16.405h-5.797l-8.028-13.722l24.499-41.877c8.427-14.404,0.777-32.873-15.367-37.1l-46.934-12.288
		l-12.288-46.934c-4.227-16.144-22.696-23.794-37.1-15.367l-41.876,24.499l-41.876-24.499c-14.404-8.427-32.873-0.777-37.1,15.367
		l-12.288,46.934l-46.934,12.288c-16.144,4.227-23.794,22.696-15.367,37.1l24.498,41.876l-8.027,13.723h-8.805
		c-9.06,0-16.405,7.345-16.405,16.405v12.832H9.02c-7,0-11.324,7.637-7.723,13.64l21.053,35.088L1.297,326.549
		c-3.602,6.003,0.722,13.64,7.723,13.64h101.779c4.974,0,9.006-4.032,9.006-9.006v-20.23h143.323v20.23
		c0,4.974,4.032,9.006,9.006,9.006h101.779c7,0,11.324-7.637,7.722-13.64L360.584,291.461z M99.976,213.497
		c-0.657-4.481-1.018-9.058-1.018-13.722c0-51.922,42.091-94.013,94.013-94.013s94.013,42.091,94.013,94.013
		c0,4.664-0.362,9.241-1.018,13.722H99.976z"/>
</g>
</svg>
