<?xml version="1.0" encoding="iso-8859-1"?>
<!-- Generator: Adobe Illustrator 19.0.0, SVG Export Plug-In . SVG Version: 6.00 Build 0)  -->
<!-- License: CC0. Made by SVG Repo: https://www.svgrepo.com/svg/264971/support -->
<svg version="1.1" id="Layer_1" xmlns="http://www.w3.org/2000/svg" xmlns:xlink="http://www.w3.org/1999/xlink" x="0px" y="0px"
	 viewBox="0 0 472.615 472.615" style="enable-background:new 0 0 472.615 472.615;" xml:space="preserve">
<g>
	<g>
		<polygon points="472.615,393.846 472.615,344.583 0,344.583 0,393.846 147.692,393.846 147.692,452.923 108.308,452.923 
			108.308,472.615 364.308,472.615 364.308,452.923 324.923,452.923 324.923,393.846 		"/>
	</g>
</g>
<g>
	<g>
		<path d="M236.308,0c-51.628,0-96.826,27.681-121.849,68.923h23.67c22.433-29.844,58.052-49.231,98.179-49.231
			c40.127,0,75.745,19.387,98.179,49.231h23.67C333.134,27.681,287.936,0,236.308,0z"/>
	</g>
</g>
<g>
	<g>
		<path d="M358.157,68.923c13.059,21.523,20.723,46.672,20.723,73.649v3.938c14.868,9.649,24.812,26.388,24.812,45.489
			c0,16.738-7.68,31.803-19.692,41.748v51.791h-90.388c-4.037,11.422-14.966,19.692-27.766,19.692h-29.538
			c-16.246,0-29.538-13.292-29.538-29.538c0-16.345,13.292-29.538,29.538-29.538h29.538c12.8,0,23.729,8.172,27.766,19.692h70.695
			v-21.761c-4.726,1.38-9.649,2.069-14.769,2.069h-14.769V137.846h14.769c3.249,0,6.498,0.294,9.551,0.886
			c-0.781-26.178-9.88-50.223-24.603-69.809H138.129c-14.723,19.586-23.822,43.631-24.603,69.809
			c3.052-0.592,6.302-0.886,9.551-0.886h14.769v108.308h-14.769c-29.834,0-54.154-24.321-54.154-54.154
			c0-19.102,9.945-35.84,24.812-45.489v-3.938c0-26.977,7.664-52.126,20.723-73.649H0v255.967h472.615V68.923H358.157z"/>
	</g>
</g>
</svg>
