<svg version="1.1" id="Layer_1" xmlns="http://www.w3.org/2000/svg" xmlns:xlink="http://www.w3.org/1999/xlink" x="0px" y="0px" viewBox="0 0 502.435 502.435" style="enable-background:new 0 0 502.435 502.435;" xml:space="preserve" transform="matrix(6.123233995736766e-17,1,-1,6.123233995736766e-17,0,0)">
<g>
	<g>
		<path d="M500.835,244.677c-2.133-4.267-6.4-8.533-11.733-10.667l-145.067-57.6c11.733-24.533,17.067-51.2,16-75.733
			c-1.067-30.933-13.867-56.533-34.133-74.667c-51.2-44.8-138.667-28.8-196.267,37.333c-21.333,24.533-37.333,53.333-43.733,83.2
			c0,1.067,0,3.2,0,4.267l-73.6,35.2c-10.667,5.333-14.933,16-10.667,26.667l61.867,153.6c2.133,5.333,6.4,9.6,11.733,11.733
			l308.267,122.667c2.133,1.067,5.333,1.067,7.467,1.067c7.467,0,16-5.333,19.2-14.933l90.667-226.133
			C502.969,255.344,502.969,250.011,500.835,244.677z M160.569,90.011c41.6-48,104.533-62.933,137.6-34.133
			c14.933,13.867,19.2,33.067,20.267,45.867c1.067,19.2-3.2,39.467-12.8,59.733L181.902,112.41
			c-5.333-2.133-11.733-1.067-17.067,1.067l-28.8,13.867C142.435,113.477,150.969,101.744,160.569,90.011z M379.235,453.744
			L98.702,342.811L48.569,215.877l125.867-60.8l106.667,42.667c-41.6,48-104.533,61.867-137.6,33.067
			c-8.533-7.467-22.4-6.4-29.867,2.133c-7.467,8.533-6.4,22.4,2.133,29.867c19.2,16,43.733,24.533,70.4,24.533
			c42.667,0,90.667-22.4,125.867-61.867c3.2-4.267,6.4-7.467,9.6-11.733l132.267,52.267L379.235,453.744z"></path>
	</g>
</g>
</svg>